#!OML:ASF E:\emotionWalksFemale\Project 1\Capture day 1\Session 1\Female1.ASF
:FULLY-SPECIFIED
:DEGREES
59
root 8.83775 15.1451 42.183 179.771 -12.3155 -178.358
lowerback 6.2579 2.66874 2.98921
upperback -4.0815 3.81539 0.222304
thorax -7.61818 1.68969 -1.91669
lowerneck -0.413621 18.1479 9.20993
upperneck 3.7319 24.3877 -6.61075
head 3.40801 12.1514 -2.49209
rclavicle 2.98177e-015 8.19987e-016
rhumerus -48.3781 15.0364 -98.5516
rradius 34.0491
rwrist 17.162
rhand -3.17722 -53.9009
rfingers 7.12502
rthumb -157.456 97.3953
lclavicle 2.98177e-015 8.19987e-016
lhumerus -41.7795 -6.89268 90.8835
lradius 37.1158
lwrist -18.3672
lhand 1.22538 -27.4772
lfingers 7.12502
lthumb 26.7635 0.649576
rfemur -4.55693 17.2459 29.4479
rtibia 25.6246
rfoot -29.3148 -37.9524
rtoes 27.0636
lfemur -12.7083 -25.8826 -21.0193
ltibia 32.0138
lfoot -23.3946 12.3541
ltoes -30.5324
60
root 8.8382 15.1461 42.1851 179.748 -12.2563 -178.388
lowerback 6.35065 2.66452 2.92884
upperback -4.11692 3.80757 0.21922
thorax -7.71413 1.68605 -1.89179
lowerneck -0.374509 18.1285 9.3673
upperneck 3.7805 24.3716 -6.74098
head 3.46048 12.143 -2.55263
rclavicle 4.27325e-014 1.6201e-014
rhumerus -48.4983 15.1648 -98.6887
rradius 34.0006
rwrist 17.1023
rhand -3.25209 -53.7892
rfingers 7.12502
rthumb -157.528 97.4982
lclavicle 4.27325e-014 1.6201e-014
lhumerus -41.8618 -6.97802 90.9502
lradius 36.7848
lwrist -19.3684
lhand 0.804374 -27.7357
lfingers 7.12502
lthumb 26.3606 0.452033
rfemur -4.53352 17.2874 29.4299
rtibia 25.6225
rfoot -29.3369 -37.9779
rtoes 26.27
lfemur -12.6405 -25.9201 -21.0725
ltibia 31.9645
lfoot -23.5086 12.3426
ltoes -30.2011
61
root 8.83798 15.1484 42.1875 179.748 -12.208 -178.4
lowerback 6.37872 2.655 2.86766
upperback -4.13388 3.79061 0.23126
thorax -7.75413 1.68003 -1.84517
lowerneck -0.322526 18.106 9.4311
upperneck 3.85917 24.3649 -7.11104
head 3.18297 12.119 -2.39764
rclavicle -4.05987e-014 -3.75206e-015
rhumerus -48.4891 15.3432 -98.8175
rradius 34.0005
rwrist 16.515
rhand -3.09597 -53.943
rfingers 7.12502
rthumb -157.378 97.3626
lclavicle -4.05987e-014 -3.75206e-015
lhumerus -41.8858 -7.04159 91.0059
lradius 36.6176
lwrist -19.9035
lhand 0.444068 -27.8726
lfingers 7.12502
lthumb 26.0156 0.366377
rfemur -4.5467 17.22 29.4041
rtibia 25.6244
rfoot -28.9549 -37.9825
rtoes 25.6188
lfemur -12.6279 -25.8935 -21.0847
ltibia 31.9368
lfoot -23.5521 12.2721
ltoes -29.7467
62
root 8.83797 15.1502 42.1881 179.825 -12.282 -178.378
lowerback 6.26914 2.63001 2.8585
upperback -4.17192 3.75044 0.231547
thorax -7.73372 1.65997 -1.82982
lowerneck 0.00247647 18.0295 9.58457
upperneck 3.42297 24.2838 -7.44169
head 3.05306 12.0849 -2.56043
rclavicle -3.22777e-014 -1.09332e-014
rhumerus -48.5034 15.392 -98.8683
rradius 34.0699
rwrist 16.1487
rhand -2.9773 -54.4291
rfingers 7.12502
rthumb -157.264 96.8905
lclavicle -3.22777e-014 -1.09332e-014
lhumerus -41.8948 -7.06003 91.0514
lradius 36.5622
lwrist -20.1967
lhand 0.580655 -27.8267
lfingers 7.12502
lthumb 26.1464 0.392988
rfemur -4.64711 17.2393 29.4121
rtibia 25.6592
rfoot -28.8344 -38.0514
rtoes 26.0347
lfemur -12.7267 -25.8298 -21.0008
ltibia 31.8854
lfoot -23.4459 12.1583
ltoes -29.2722
63
root 8.83666 15.1479 42.1936 179.791 -12.0214 -178.373
lowerback 6.40091 2.711 2.87582
upperback -4.20033 3.8657 0.2233
thorax -7.8339 1.71245 -1.8706
lowerneck 0.0432583 18.0193 9.58649
upperneck 3.44227 24.2713 -7.40016
head 3.04666 12.0806 -2.55402
rclavicle -4.71337e-014 -4.19933e-015
rhumerus -48.6434 15.3718 -98.8693
rradius 34.2112
rwrist 16.022
rhand -3.13641 -54.5372
rfingers 7.12502
rthumb -157.417 96.7637
lclavicle -4.71337e-014 -4.19933e-015
lhumerus -41.9107 -7.09824 91.1116
lradius 36.5639
lwrist -20.3363
lhand 0.76315 -27.7621
lfingers 7.12502
lthumb 26.3211 0.431578
rfemur -4.69059 17.2775 29.3755
rtibia 25.7075
rfoot -28.7504 -37.87
rtoes 26.1008
lfemur -12.6253 -26.1314 -21.0546
ltibia 31.8419
lfoot -23.4753 12.606
ltoes -28.4911
64
root 8.83542 15.1524 42.1969 180.031 -11.7755 -178.454
lowerback 6.23064 2.79334 2.77517
upperback -4.27536 3.95485 0.186845
thorax -7.81488 1.75862 -1.85624
lowerneck 0.0728642 18.0294 9.62293
upperneck 3.42413 24.287 -7.41934
head 3.0444 12.0893 -2.56499
rclavicle 6.89022e-014 1.54058e-015
rhumerus -48.688 15.3296 -98.8519
rradius 34.3308
rwrist 15.7454
rhand -3.08266 -54.3681
rfingers 7.12502
rthumb -157.365 96.9391
lclavicle 6.89022e-014 1.54058e-015
lhumerus -41.88 -7.16019 91.1379
lradius 36.5826
lwrist -20.2782
lhand 1.38687 -27.4639
lfingers 7.12502
lthumb 26.9181 0.639175
rfemur -5.00119 17.2484 29.1627
rtibia 25.7167
rfoot -28.4886 -37.6673
rtoes 25.5092
lfemur -12.8299 -26.5025 -21.0638
ltibia 31.8112
lfoot -23.5589 13.0505
ltoes -27.8252
